{
    "asset" : {
        "generator" : "Khronos glTF Blender I/O v1.7.33",
        "version" : "2.0"
    },
    "extensionsUsed" : [
        "KHR_lights_punctual"
    ],
    "extensionsRequired" : [
        "KHR_lights_punctual"
    ],
    "extensions" : {
        "KHR_lights_punctual" : {
            "lights" : [
                {
                    "color" : [
                        0.8312499523162842,
                        0.9620324373245239,
                        1
                    ],
                    "intensity" : 1,
                    "type" : "directional",
                    "name" : "Directional"
                },
                {
                    "color" : [
                        1,
                        0.37535229325294495,
                        0.8264306783676147
                    ],
                    "intensity" : 54.29999542236328,
                    "type" : "point",
                    "name" : "Point"
                }
            ]
        }
    },
    "scene" : 0,
    "scenes" : [
        {
            "name" : "Scene",
            "nodes" : [
                0,
                1,
                2,
                3,
                4,
                6,
                8
            ]
        }
    ],
    "nodes" : [
        {
            "mesh" : 0,
            "name" : "Plane"
        },
        {
            "mesh" : 1,
            "name" : "Suzanne",
            "translation" : [
                0,
                1.8732532262802124,
                -1.8219746351242065
            ]
        },
        {
            "mesh" : 2,
            "name" : "Icosphere",
            "rotation" : [
                0.35565492510795593,
                0.2814783453941345,
                -0.41612252593040466,
                0.7881126403808594
            ],
            "scale" : [
                4.751383304595947,
                4.751383304595947,
                4.751383304595947
            ],
            "translation" : [
                0,
                11.510358810424805,
                -13.312744140625
            ]
        },
        {
            "mesh" : 3,
            "name" : "Pillar_01",
            "translation" : [
                -3,
                -0.43131017684936523,
                -1.842117190361023
            ]
        },
        {
            "mesh" : 4,
            "name" : "Pillar_02",
            "translation" : [
                3,
                -0.43131017684936523,
                -1.842117190361023
            ]
        },
        {
            "extensions" : {
                "KHR_lights_punctual" : {
                    "light" : 0
                }
            },
            "name" : "Directional_Orientation",
            "rotation" : [
                -0.7071067690849304,
                0,
                0,
                0.7071067690849304
            ]
        },
        {
            "children" : [
                5
            ],
            "name" : "Directional",
            "rotation" : [
                0.3457595705986023,
                0.3889499604701996,
                -0.1603424847126007,
                0.8387244939804077
            ],
            "translation" : [
                0,
                6.000250816345215,
                0
            ]
        },
        {
            "extensions" : {
                "KHR_lights_punctual" : {
                    "light" : 1
                }
            },
            "name" : "Point_Orientation",
            "rotation" : [
                -0.7071067690849304,
                0,
                0,
                0.7071067690849304
            ]
        },
        {
            "children" : [
                7
            ],
            "name" : "Point",
            "translation" : [
                0,
                1.149341344833374,
                -2.0836968421936035
            ]
        }
    ],
    "materials" : [
        {
            "name" : "Floor",
            "pbrMetallicRoughness" : {
                "baseColorTexture" : {
                    "index" : 0
                },
                "metallicFactor" : 0,
                "roughnessFactor" : 0.5
            }
        },
        {
            "name" : "Suzanne",
            "pbrMetallicRoughness" : {
                "metallicFactor" : 0,
                "roughnessFactor" : 0.5
            }
        },
        {
            "emissiveFactor" : [
                1,
                1,
                1
            ],
            "name" : "Icosphere",
            "pbrMetallicRoughness" : {
                "metallicFactor" : 0,
                "roughnessFactor" : 0.5
            }
        },
        {
            "name" : "Towers",
            "pbrMetallicRoughness" : {
                "baseColorTexture" : {
                    "index" : 1
                },
                "metallicFactor" : 0,
                "roughnessFactor" : 0.5
            }
        }
    ],
    "meshes" : [
        {
            "name" : "Plane",
            "primitives" : [
                {
                    "attributes" : {
                        "POSITION" : 0,
                        "NORMAL" : 1,
                        "TANGENT" : 2,
                        "TEXCOORD_0" : 3
                    },
                    "indices" : 4,
                    "material" : 0
                }
            ]
        },
        {
            "name" : "Suzanne",
            "primitives" : [
                {
                    "attributes" : {
                        "POSITION" : 5,
                        "NORMAL" : 6,
                        "TANGENT" : 7,
                        "TEXCOORD_0" : 8,
                        "COLOR_0" : 9
                    },
                    "indices" : 10,
                    "material" : 1
                }
            ]
        },
        {
            "name" : "Icosphere",
            "primitives" : [
                {
                    "attributes" : {
                        "POSITION" : 11,
                        "NORMAL" : 12,
                        "TEXCOORD_0" : 13
                    },
                    "indices" : 14,
                    "material" : 2
                }
            ]
        },
        {
            "name" : "Pillar_01",
            "primitives" : [
                {
                    "attributes" : {
                        "POSITION" : 15,
                        "NORMAL" : 16,
                        "TANGENT" : 17,
                        "TEXCOORD_0" : 18
                    },
                    "indices" : 19,
                    "material" : 3
                }
            ]
        },
        {
            "name" : "Pillar_02",
            "primitives" : [
                {
                    "attributes" : {
                        "POSITION" : 20,
                        "NORMAL" : 21,
                        "TANGENT" : 22,
                        "TEXCOORD_0" : 23
                    },
                    "indices" : 19,
                    "material" : 3
                }
            ]
        }
    ],
    "textures" : [
        {
            "sampler" : 0,
            "source" : 0
        },
        {
            "sampler" : 0,
            "source" : 0
        }
    ],
    "images" : [
        {
            "bufferView" : 5,
            "mimeType" : "image/jpeg",
            "name" : "brickwall"
        }
    ],
    "accessors" : [
        {
            "bufferView" : 0,
            "componentType" : 5126,
            "count" : 4,
            "max" : [
                2527.07177734375,
                0,
                2527.07177734375
            ],
            "min" : [
                -2527.07177734375,
                0,
                -2527.07177734375
            ],
            "type" : "VEC3"
        },
        {
            "bufferView" : 1,
            "componentType" : 5126,
            "count" : 4,
            "type" : "VEC3"
        },
        {
            "bufferView" : 2,
            "componentType" : 5126,
            "count" : 4,
            "type" : "VEC4"
        },
        {
            "bufferView" : 3,
            "componentType" : 5126,
            "count" : 4,
            "type" : "VEC2"
        },
        {
            "bufferView" : 4,
            "componentType" : 5123,
            "count" : 6,
            "type" : "SCALAR"
        },
        {
            "bufferView" : 6,
            "componentType" : 5126,
            "count" : 13258,
            "max" : [
                1.365625023841858,
                0.9819779396057129,
                0.8498650193214417
            ],
            "min" : [
                -1.365625023841858,
                -0.9838770031929016,
                -0.8483108878135681
            ],
            "type" : "VEC3"
        },
        {
            "bufferView" : 7,
            "componentType" : 5126,
            "count" : 13258,
            "type" : "VEC3"
        },
        {
            "bufferView" : 8,
            "componentType" : 5126,
            "count" : 13258,
            "type" : "VEC4"
        },
        {
            "bufferView" : 9,
            "componentType" : 5126,
            "count" : 13258,
            "type" : "VEC2"
        },
        {
            "bufferView" : 10,
            "componentType" : 5123,
            "count" : 13258,
            "normalized" : true,
            "type" : "VEC4"
        },
        {
            "bufferView" : 11,
            "componentType" : 5123,
            "count" : 45636,
            "type" : "SCALAR"
        },
        {
            "bufferView" : 12,
            "componentType" : 5126,
            "count" : 1605,
            "max" : [
                0.9492217898368835,
                0.9919015765190125,
                0.9899773001670837
            ],
            "min" : [
                -0.9492217898368835,
                -0.9919015169143677,
                -0.989977240562439
            ],
            "type" : "VEC3"
        },
        {
            "bufferView" : 13,
            "componentType" : 5126,
            "count" : 1605,
            "type" : "VEC3"
        },
        {
            "bufferView" : 14,
            "componentType" : 5126,
            "count" : 1605,
            "type" : "VEC2"
        },
        {
            "bufferView" : 15,
            "componentType" : 5123,
            "count" : 5748,
            "type" : "SCALAR"
        },
        {
            "bufferView" : 16,
            "componentType" : 5126,
            "count" : 152,
            "max" : [
                1,
                5.428192615509033,
                1
            ],
            "min" : [
                -1,
                -5.428192615509033,
                -1
            ],
            "type" : "VEC3"
        },
        {
            "bufferView" : 17,
            "componentType" : 5126,
            "count" : 152,
            "type" : "VEC3"
        },
        {
            "bufferView" : 18,
            "componentType" : 5126,
            "count" : 152,
            "type" : "VEC4"
        },
        {
            "bufferView" : 19,
            "componentType" : 5126,
            "count" : 152,
            "type" : "VEC2"
        },
        {
            "bufferView" : 20,
            "componentType" : 5123,
            "count" : 564,
            "type" : "SCALAR"
        },
        {
            "bufferView" : 21,
            "componentType" : 5126,
            "count" : 152,
            "max" : [
                1,
                5.428192615509033,
                1
            ],
            "min" : [
                -1,
                -5.428192615509033,
                -1
            ],
            "type" : "VEC3"
        },
        {
            "bufferView" : 22,
            "componentType" : 5126,
            "count" : 152,
            "type" : "VEC3"
        },
        {
            "bufferView" : 23,
            "componentType" : 5126,
            "count" : 152,
            "type" : "VEC4"
        },
        {
            "bufferView" : 24,
            "componentType" : 5126,
            "count" : 152,
            "type" : "VEC2"
        }
    ],
    "bufferViews" : [
        {
            "buffer" : 0,
            "byteLength" : 48,
            "byteOffset" : 0
        },
        {
            "buffer" : 0,
            "byteLength" : 48,
            "byteOffset" : 48
        },
        {
            "buffer" : 0,
            "byteLength" : 64,
            "byteOffset" : 96
        },
        {
            "buffer" : 0,
            "byteLength" : 32,
            "byteOffset" : 160
        },
        {
            "buffer" : 0,
            "byteLength" : 12,
            "byteOffset" : 192
        },
        {
            "buffer" : 0,
            "byteLength" : 198744,
            "byteOffset" : 204
        },
        {
            "buffer" : 0,
            "byteLength" : 159096,
            "byteOffset" : 198948
        },
        {
            "buffer" : 0,
            "byteLength" : 159096,
            "byteOffset" : 358044
        },
        {
            "buffer" : 0,
            "byteLength" : 212128,
            "byteOffset" : 517140
        },
        {
            "buffer" : 0,
            "byteLength" : 106064,
            "byteOffset" : 729268
        },
        {
            "buffer" : 0,
            "byteLength" : 106064,
            "byteOffset" : 835332
        },
        {
            "buffer" : 0,
            "byteLength" : 91272,
            "byteOffset" : 941396
        },
        {
            "buffer" : 0,
            "byteLength" : 19260,
            "byteOffset" : 1032668
        },
        {
            "buffer" : 0,
            "byteLength" : 19260,
            "byteOffset" : 1051928
        },
        {
            "buffer" : 0,
            "byteLength" : 12840,
            "byteOffset" : 1071188
        },
        {
            "buffer" : 0,
            "byteLength" : 11496,
            "byteOffset" : 1084028
        },
        {
            "buffer" : 0,
            "byteLength" : 1824,
            "byteOffset" : 1095524
        },
        {
            "buffer" : 0,
            "byteLength" : 1824,
            "byteOffset" : 1097348
        },
        {
            "buffer" : 0,
            "byteLength" : 2432,
            "byteOffset" : 1099172
        },
        {
            "buffer" : 0,
            "byteLength" : 1216,
            "byteOffset" : 1101604
        },
        {
            "buffer" : 0,
            "byteLength" : 1128,
            "byteOffset" : 1102820
        },
        {
            "buffer" : 0,
            "byteLength" : 1824,
            "byteOffset" : 1103948
        },
        {
            "buffer" : 0,
            "byteLength" : 1824,
            "byteOffset" : 1105772
        },
        {
            "buffer" : 0,
            "byteLength" : 2432,
            "byteOffset" : 1107596
        },
        {
            "buffer" : 0,
            "byteLength" : 1216,
            "byteOffset" : 1110028
        }
    ],
    "samplers" : [
        {
            "magFilter" : 9729,
            "minFilter" : 9987
        }
    ],
    "buffers" : [
        {
            "byteLength" : 1111244,
            "uri" : "data:application/octet-stream;base64,"
        }
    ]
}
