{
    "asset" : {
        "generator" : "Khronos glTF Blender I/O v1.7.33",
        "version" : "2.0"
    },
    "scene" : 0,
    "scenes" : [
        {
            "name" : "Scene",
            "nodes" : [
                0
            ]
        }
    ],
    "nodes" : [
        {
            "mesh" : 0,
            "name" : "Cone"
        }
    ],
    "meshes" : [
        {
            "name" : "Cone.001",
            "primitives" : [
                {
                    "attributes" : {
                        "POSITION" : 0,
                        "NORMAL" : 1,
                        "TANGENT" : 2,
                        "TEXCOORD_0" : 3
                    },
                    "indices" : 4
                }
            ]
        }
    ],
    "accessors" : [
        {
            "bufferView" : 0,
            "componentType" : 5126,
            "count" : 7299,
            "max" : [
                0.9738844633102417,
                2.029712200164795,
                0.9738845825195312
            ],
            "min" : [
                -0.9738844037055969,
                0.0008550879429094493,
                -0.9738845229148865
            ],
            "type" : "VEC3"
        },
        {
            "bufferView" : 1,
            "componentType" : 5126,
            "count" : 7299,
            "type" : "VEC3"
        },
        {
            "bufferView" : 2,
            "componentType" : 5126,
            "count" : 7299,
            "type" : "VEC4"
        },
        {
            "bufferView" : 3,
            "componentType" : 5126,
            "count" : 7299,
            "type" : "VEC2"
        },
        {
            "bufferView" : 4,
            "componentType" : 5123,
            "count" : 29184,
            "type" : "SCALAR"
        }
    ],
    "bufferViews" : [
        {
            "buffer" : 0,
            "byteLength" : 87588,
            "byteOffset" : 0
        },
        {
            "buffer" : 0,
            "byteLength" : 87588,
            "byteOffset" : 87588
        },
        {
            "buffer" : 0,
            "byteLength" : 116784,
            "byteOffset" : 175176
        },
        {
            "buffer" : 0,
            "byteLength" : 58392,
            "byteOffset" : 291960
        },
        {
            "buffer" : 0,
            "byteLength" : 58368,
            "byteOffset" : 350352
        }
    ],
    "buffers" : [
        {
            "byteLength" : 408720,
            "uri" : "data:application/octet-stream;base64,"
        }
    ]
}
