# Blender v3.0.1 OBJ File: ''
# www.blender.org
o Cube
v 0.990000 0.990000 1.000000
v -0.990000 -0.990000 1.000000
v 0.990000 -0.990000 1.000000
v 1.000000 0.990000 -0.990000
v 1.000000 -0.990000 0.990000
v 1.000000 -0.990000 -0.990000
v -0.990000 1.000000 -0.990000
v 0.990000 1.000000 0.990000
v 0.990000 1.000000 -0.990000
v -1.000000 0.990000 0.990000
v -1.000000 -0.990000 -0.990000
v -1.000000 -0.990000 0.990000
v -0.990000 0.990000 -1.000000
v 0.990000 -0.990000 -1.000000
v -0.990000 -0.990000 -1.000000
v -0.990000 -0.998664 0.994993
v -0.994993 -0.998664 0.990000
v -0.990000 -1.000000 0.990000
v -0.994782 -0.994782 0.997366
v -0.994782 -0.997366 0.994782
v -0.994993 -0.990000 0.998664
v -0.990000 -0.994993 0.998664
v -0.998664 -0.990000 0.994993
v -0.998664 -0.994993 0.990000
v -0.997366 -0.994782 0.994782
v -0.990000 0.994993 0.998664
v -0.994993 0.990000 0.998664
v -0.990000 0.990000 1.000000
v -0.990000 0.998664 0.994993
v -0.994782 0.994782 0.997366
v -0.994993 0.998664 0.990000
v -0.990000 1.000000 0.990000
v -0.997366 0.994782 0.994782
v -0.994782 0.997366 0.994782
v -0.998664 0.990000 0.994993
v -0.998664 0.994993 0.990000
v -0.994993 -0.998664 -0.990000
v -0.990000 -0.998664 -0.994993
v -0.990000 -1.000000 -0.990000
v -0.997366 -0.994782 -0.994782
v -0.994782 -0.997366 -0.994782
v -0.998664 -0.990000 -0.994993
v -0.998664 -0.994993 -0.990000
v -0.994993 -0.990000 -0.998664
v -0.990000 -0.994993 -0.998664
v -0.994782 -0.994782 -0.997366
v -0.990000 0.998664 -0.994993
v -0.994993 0.998664 -0.990000
v -0.994782 0.994782 -0.997366
v -0.994782 0.997366 -0.994782
v -0.994993 0.990000 -0.998664
v -0.990000 0.994993 -0.998664
v -0.998664 0.990000 -0.994993
v -0.998664 0.994993 -0.990000
v -1.000000 0.990000 -0.990000
v -0.997366 0.994782 -0.994782
v 0.994993 -0.998664 0.990000
v 0.990000 -0.998664 0.994993
v 0.990000 -1.000000 0.990000
v 0.997366 -0.994782 0.994782
v 0.994782 -0.997366 0.994782
v 0.998664 -0.990000 0.994993
v 0.998664 -0.994993 0.990000
v 0.994993 -0.990000 0.998664
v 0.990000 -0.994993 0.998664
v 0.994782 -0.994782 0.997366
v 0.990000 0.998664 0.994993
v 0.994993 0.998664 0.990000
v 0.994782 0.994782 0.997366
v 0.994782 0.997366 0.994782
v 0.994993 0.990000 0.998664
v 0.990000 0.994993 0.998664
v 0.998664 0.990000 0.994993
v 0.998664 0.994993 0.990000
v 1.000000 0.990000 0.990000
v 0.997366 0.994782 0.994782
v 0.990000 -0.998664 -0.994993
v 0.994993 -0.998664 -0.990000
v 0.990000 -1.000000 -0.990000
v 0.994782 -0.994782 -0.997366
v 0.994782 -0.997366 -0.994782
v 0.994993 -0.990000 -0.998664
v 0.990000 -0.994993 -0.998664
v 0.998664 -0.990000 -0.994993
v 0.998664 -0.994993 -0.990000
v 0.997366 -0.994782 -0.994782
v 0.994993 0.998664 -0.990000
v 0.990000 0.998664 -0.994993
v 0.997366 0.994782 -0.994782
v 0.994782 0.997366 -0.994782
v 0.998664 0.990000 -0.994993
v 0.998664 0.994993 -0.990000
v 0.994993 0.990000 -0.998664
v 0.990000 0.994993 -0.998664
v 0.990000 0.990000 -1.000000
v 0.994782 0.994782 -0.997366
vt 0.985381 0.995061
vt 0.016443 0.012828
vt 0.016443 0.995061
vt 0.985381 0.016336
vt 0.016443 0.985274
vt 0.016443 0.016336
vt 0.014425 0.016336
vt 0.995169 0.985274
vt 0.995169 0.016336
vt 0.985381 0.012131
vt 0.016443 0.981070
vt 0.016443 0.012131
vt 0.985381 0.990857
vt 0.016443 0.006548
vt 0.016443 0.990857
vt 0.988889 0.987717
vt 0.986446 0.985274
vt 0.988889 0.985274
vt 0.986548 0.990167
vt 0.986548 0.987615
vt 0.016443 0.015270
vt 0.014000 0.012828
vt 0.016443 0.007238
vt 0.014102 0.008526
vt 0.016443 0.007891
vt 0.014000 0.012131
vt 0.016443 0.009688
vt 0.983996 0.985274
vt 0.985283 0.987615
vt 0.984649 0.985274
vt 0.983996 0.987615
vt 0.987824 0.012828
vt 0.985381 0.015270
vt 0.985381 0.012828
vt 0.990275 0.012828
vt 0.987723 0.015169
vt 0.016868 0.985274
vt 0.014425 0.987717
vt 0.014425 0.985274
vt 0.989621 0.012131
vt 0.990275 0.009790
vt 0.988987 0.009790
vt 0.985381 0.009688
vt 0.987824 0.012131
vt 0.985381 0.007238
vt 0.987723 0.009790
vt 0.990275 0.015169
vt 0.987723 0.017721
vt 0.986446 0.016336
vt 0.988889 0.013893
vt 0.988889 0.016336
vt 0.983996 0.013994
vt 0.986548 0.013994
vt 0.016443 0.983513
vt 0.014000 0.981070
vt 0.016443 0.985963
vt 0.014102 0.983411
vt 0.014000 0.990857
vt 0.016443 0.988414
vt 0.988889 0.011442
vt 0.986548 0.012730
vt 0.988889 0.012096
vt 0.986548 0.011442
vt 0.014425 0.013893
vt 0.016868 0.016336
vt 0.989621 0.990857
vt 0.990275 0.988516
vt 0.988987 0.988516
vt 0.985381 0.988414
vt 0.987824 0.990857
vt 0.985381 0.985963
vt 0.987723 0.988516
vt 0.987824 0.981070
vt 0.985381 0.983513
vt 0.985381 0.981070
vt 0.990275 0.981070
vt 0.987723 0.983411
vt 0.987723 0.985963
vt 0.009099 0.985274
vt 0.006656 0.987717
vt 0.006656 0.985274
vt 0.011550 0.987615
vt 0.008997 0.987615
vt 0.016443 0.987717
vt 0.014000 0.985274
vt 0.016443 0.990167
vt 0.014102 0.987615
vt 0.014000 0.995061
vt 0.016443 0.992618
vt 0.006656 0.990167
vt 0.008997 0.988880
vt 0.006656 0.989514
vt 0.008997 0.990167
vt 0.995169 0.987717
vt 0.992726 0.985274
vt 0.989621 0.995061
vt 0.990275 0.992720
vt 0.988987 0.992720
vt 0.985381 0.992618
vt 0.987824 0.995061
vt 0.985381 0.990167
vt 0.987723 0.992720
vt 0.987824 0.985274
vt 0.985381 0.987717
vt 0.985381 0.985274
vt 0.990275 0.985274
vt 0.987723 0.987615
vt 0.987723 0.990167
vt 0.006656 0.013893
vt 0.009099 0.016336
vt 0.006656 0.016336
vt 0.008997 0.011442
vt 0.008997 0.013994
vt 0.016443 0.008991
vt 0.014000 0.006548
vt 0.016443 0.011442
vt 0.014102 0.008889
vt 0.014000 0.016336
vt 0.016443 0.013893
vt 0.011550 0.016336
vt 0.014102 0.013994
vt 0.011550 0.013994
vt 0.992726 0.016336
vt 0.995169 0.013893
vt 0.990275 0.013994
vt 0.992828 0.013994
vt 0.985381 0.013893
vt 0.987824 0.016336
vt 0.985381 0.011442
vt 0.987723 0.013994
vt 0.987824 0.006548
vt 0.985381 0.008991
vt 0.985381 0.006548
vt 0.990275 0.006548
vt 0.987723 0.008889
vt 0.988987 0.013994
vt 0.987723 0.011442
vt 0.983996 0.016336
vt 0.016443 0.007238
vt 0.990275 0.012131
vt 0.006656 0.011442
vt 0.990275 0.990857
vt 0.988889 0.990167
vt 0.990275 0.995061
vt 0.014102 0.015169
vt 0.014102 0.007238
vt 0.014102 0.009790
vt 0.983996 0.987615
vt 0.016766 0.987615
vt 0.990275 0.012131
vt 0.987723 0.007238
vt 0.014102 0.985963
vt 0.014102 0.988516
vt 0.986548 0.011442
vt 0.016766 0.013994
vt 0.990275 0.990857
vt 0.990275 0.983411
vt 0.011550 0.985274
vt 0.014102 0.990167
vt 0.014102 0.992720
vt 0.008997 0.990167
vt 0.992828 0.987615
vt 0.990275 0.995061
vt 0.990275 0.987615
vt 0.014102 0.011442
vt 0.011550 0.013994
vt 0.990275 0.016336
vt 0.990275 0.008889
vt 0.983996 0.985274
vt 0.988889 0.011442
vt 0.006656 0.990167
vn 0.1280 0.1280 0.9835
vn -0.1280 -0.1280 0.9835
vn 0.1280 -0.1280 0.9835
vn 0.9835 0.1280 -0.1280
vn 0.9835 -0.1280 0.1280
vn 0.9835 -0.1280 -0.1280
vn -0.1280 0.9835 -0.1280
vn 0.1280 0.9835 0.1280
vn 0.1280 0.9835 -0.1280
vn -0.9835 0.1280 0.1280
vn -0.9835 -0.1280 -0.1280
vn -0.9835 -0.1280 0.1280
vn -0.1280 0.1280 -0.9835
vn 0.1280 -0.1280 -0.9835
vn -0.1280 -0.1280 -0.9835
vn -0.1216 -0.8623 0.4916
vn -0.4916 -0.8623 0.1216
vn -0.1280 -0.9835 0.1280
vn -0.4489 -0.4489 0.7727
vn -0.4489 -0.7727 0.4489
vn -0.4916 -0.1216 0.8623
vn -0.1216 -0.4916 0.8623
vn -0.8623 -0.1216 0.4916
vn -0.8623 -0.4916 0.1216
vn -0.7727 -0.4489 0.4489
vn -0.1216 0.4916 0.8623
vn -0.4916 0.1216 0.8623
vn -0.1280 0.1280 0.9835
vn -0.1216 0.8623 0.4916
vn -0.4489 0.4489 0.7727
vn -0.4916 0.8623 0.1216
vn -0.1280 0.9835 0.1280
vn -0.7727 0.4489 0.4489
vn -0.4489 0.7727 0.4489
vn -0.8623 0.1216 0.4916
vn -0.8623 0.4916 0.1216
vn -0.4916 -0.8623 -0.1216
vn -0.1216 -0.8623 -0.4916
vn -0.1280 -0.9835 -0.1280
vn -0.7727 -0.4489 -0.4489
vn -0.4489 -0.7727 -0.4489
vn -0.8623 -0.1216 -0.4916
vn -0.8623 -0.4916 -0.1216
vn -0.4916 -0.1216 -0.8623
vn -0.1216 -0.4916 -0.8623
vn -0.4489 -0.4489 -0.7727
vn -0.1216 0.8623 -0.4916
vn -0.4916 0.8623 -0.1216
vn -0.4489 0.4489 -0.7727
vn -0.4489 0.7727 -0.4489
vn -0.4916 0.1216 -0.8623
vn -0.1216 0.4916 -0.8623
vn -0.8623 0.1216 -0.4916
vn -0.8623 0.4916 -0.1216
vn -0.9835 0.1280 -0.1280
vn -0.7727 0.4489 -0.4489
vn 0.4916 -0.8623 0.1216
vn 0.1216 -0.8623 0.4916
vn 0.1280 -0.9835 0.1280
vn 0.7727 -0.4488 0.4489
vn 0.4489 -0.7727 0.4489
vn 0.8623 -0.1216 0.4916
vn 0.8623 -0.4916 0.1216
vn 0.4916 -0.1216 0.8623
vn 0.1216 -0.4916 0.8623
vn 0.4489 -0.4489 0.7727
vn 0.1216 0.8623 0.4916
vn 0.4916 0.8623 0.1216
vn 0.4489 0.4489 0.7727
vn 0.4489 0.7727 0.4489
vn 0.4916 0.1216 0.8623
vn 0.1216 0.4916 0.8623
vn 0.8623 0.1216 0.4916
vn 0.8623 0.4916 0.1216
vn 0.9835 0.1280 0.1280
vn 0.7727 0.4489 0.4489
vn 0.1216 -0.8623 -0.4916
vn 0.4916 -0.8623 -0.1216
vn 0.1280 -0.9835 -0.1280
vn 0.4489 -0.4489 -0.7727
vn 0.4489 -0.7727 -0.4489
vn 0.4916 -0.1216 -0.8623
vn 0.1216 -0.4916 -0.8623
vn 0.8623 -0.1216 -0.4916
vn 0.8623 -0.4916 -0.1216
vn 0.7727 -0.4489 -0.4489
vn 0.4916 0.8623 -0.1216
vn 0.1216 0.8623 -0.4916
vn 0.7727 0.4488 -0.4489
vn 0.4489 0.7727 -0.4489
vn 0.8623 0.1216 -0.4916
vn 0.8623 0.4916 -0.1216
vn 0.4916 0.1216 -0.8623
vn 0.1216 0.4916 -0.8623
vn 0.1280 0.1280 -0.9835
vn 0.4489 0.4489 -0.7727
s 1
f 1/1/1 2/2/2 3/3/3
f 4/4/4 5/5/5 6/6/6
f 7/7/7 8/8/8 9/9/9
f 10/10/10 11/11/11 12/12/12
f 13/13/13 14/14/14 15/15/15
f 16/16/16 17/17/17 18/18/18
f 16/16/16 19/19/19 20/20/20
f 21/21/21 22/22/22 2/2/2
f 23/23/23 19/24/19 21/25/21
f 24/26/24 23/27/23 12/12/12
f 17/28/17 25/29/25 24/30/24
f 20/20/20 19/19/19 25/31/25
f 26/32/26 27/33/27 28/34/28
f 29/35/29 30/36/30 26/32/26
f 31/37/31 29/38/29 32/39/32
f 31/40/31 33/41/33 34/42/34
f 35/43/35 36/44/36 10/10/10
f 27/45/27 33/46/33 35/43/35
f 30/36/30 34/47/34 33/48/33
f 37/49/37 38/50/38 39/51/39
f 37/49/37 40/52/40 41/53/41
f 42/54/42 43/55/43 11/11/11
f 44/56/44 40/57/40 42/54/42
f 45/58/45 44/59/44 15/15/15
f 38/60/38 46/61/46 45/62/45
f 41/53/41 40/52/40 46/63/46
f 47/64/47 48/65/48 7/7/7
f 47/66/47 49/67/49 50/68/50
f 51/69/51 52/70/52 13/13/13
f 53/71/53 49/72/49 51/69/51
f 54/73/54 53/74/53 55/75/55
f 48/76/48 56/77/56 54/73/54
f 50/68/50 49/67/49 56/78/56
f 57/79/57 58/80/58 59/81/59
f 57/79/57 60/82/60 61/83/61
f 62/84/62 63/85/63 5/5/5
f 64/86/64 60/87/60 62/84/62
f 65/88/65 64/89/64 3/3/3
f 58/90/58 66/91/66 65/92/65
f 61/83/61 60/82/60 66/93/66
f 67/94/67 68/95/68 8/8/8
f 67/96/67 69/97/69 70/98/70
f 71/99/71 72/100/72 1/1/1
f 73/101/73 69/102/69 71/99/71
f 74/103/74 73/104/73 75/105/75
f 68/106/68 76/107/76 74/103/74
f 70/98/70 69/97/69 76/108/76
f 77/109/77 78/110/78 79/111/79
f 77/109/77 80/112/80 81/113/81
f 82/114/82 83/115/83 14/14/14
f 84/116/84 80/117/80 82/114/82
f 85/118/85 84/119/84 6/6/6
f 78/120/78 86/121/86 85/118/85
f 81/113/81 80/112/80 86/122/86
f 87/123/87 88/124/88 9/9/9
f 87/123/87 89/125/89 90/126/90
f 91/127/91 92/128/92 4/4/4
f 93/129/93 89/130/89 91/127/91
f 94/131/94 93/132/93 95/133/95
f 88/134/88 96/135/96 94/131/94
f 90/136/90 89/125/89 96/137/96
f 18/18/18 37/49/37 39/51/39
f 17/17/17 43/138/43 37/49/37
f 24/26/24 11/11/11 43/55/43
f 28/34/28 21/21/21 2/2/2
f 27/45/27 23/27/23 21/139/21
f 35/43/35 12/12/12 23/27/23
f 7/7/7 31/37/31 32/39/32
f 48/76/48 36/44/36 31/140/31
f 54/73/54 10/10/10 36/44/36
f 15/15/15 51/69/51 13/13/13
f 44/59/44 53/74/53 51/69/51
f 42/54/42 55/75/55 53/74/53
f 39/51/39 77/109/77 79/111/79
f 38/50/38 83/141/83 77/109/77
f 45/58/45 14/14/14 83/115/83
f 9/9/9 47/64/47 7/7/7
f 88/134/88 52/70/52 47/142/47
f 94/131/94 13/13/13 52/70/52
f 6/6/6 91/127/91 4/4/4
f 84/119/84 93/132/93 91/127/91
f 82/114/82 95/133/95 93/132/93
f 79/111/79 57/79/57 59/81/59
f 78/110/78 63/85/63 57/79/57
f 85/118/85 5/5/5 63/85/63
f 8/8/8 87/123/87 9/9/9
f 68/95/68 92/128/92 87/123/87
f 74/103/74 4/4/4 92/128/92
f 3/3/3 71/99/71 1/1/1
f 64/89/64 73/104/73 71/99/71
f 62/84/62 75/105/75 73/104/73
f 59/81/59 16/16/16 18/18/18
f 58/80/58 22/143/22 16/16/16
f 65/88/65 2/2/2 22/22/22
f 32/39/32 67/94/67 8/8/8
f 29/35/29 72/100/72 67/144/67
f 26/32/26 1/1/1 72/100/72
f 79/111/79 18/18/18 39/51/39
f 1/1/1 28/34/28 2/2/2
f 4/4/4 75/105/75 5/5/5
f 7/7/7 32/39/32 8/8/8
f 10/10/10 55/75/55 11/11/11
f 13/13/13 95/133/95 14/14/14
f 16/16/16 20/20/20 17/17/17
f 16/16/16 22/143/22 19/19/19
f 21/21/21 19/145/19 22/22/22
f 23/23/23 25/146/25 19/24/19
f 24/26/24 25/147/25 23/27/23
f 17/28/17 20/148/20 25/29/25
f 26/32/26 30/36/30 27/33/27
f 29/35/29 34/47/34 30/36/30
f 31/37/31 34/149/34 29/38/29
f 31/40/31 36/150/36 33/41/33
f 35/43/35 33/46/33 36/44/36
f 27/45/27 30/151/30 33/46/33
f 37/49/37 41/53/41 38/50/38
f 37/49/37 43/138/43 40/52/40
f 42/54/42 40/57/40 43/55/43
f 44/56/44 46/152/46 40/57/40
f 45/58/45 46/153/46 44/59/44
f 38/60/38 41/154/41 46/61/46
f 47/64/47 50/155/50 48/65/48
f 47/66/47 52/156/52 49/67/49
f 51/69/51 49/72/49 52/70/52
f 53/71/53 56/78/56 49/72/49
f 54/73/54 56/77/56 53/74/53
f 48/76/48 50/157/50 56/77/56
f 57/79/57 61/83/61 58/80/58
f 57/79/57 63/158/63 60/82/60
f 62/84/62 60/87/60 63/85/63
f 64/86/64 66/159/66 60/87/60
f 65/88/65 66/160/66 64/89/64
f 58/90/58 61/161/61 66/91/66
f 67/94/67 70/162/70 68/95/68
f 67/96/67 72/163/72 69/97/69
f 71/99/71 69/102/69 72/100/72
f 73/101/73 76/108/76 69/102/69
f 74/103/74 76/107/76 73/104/73
f 68/106/68 70/164/70 76/107/76
f 77/109/77 81/113/81 78/110/78
f 77/109/77 83/141/83 80/112/80
f 82/114/82 80/117/80 83/115/83
f 84/116/84 86/165/86 80/117/80
f 85/118/85 86/121/86 84/119/84
f 78/120/78 81/166/81 86/121/86
f 87/123/87 90/126/90 88/124/88
f 87/123/87 92/167/92 89/125/89
f 91/127/91 89/130/89 92/128/92
f 93/129/93 96/137/96 89/130/89
f 94/131/94 96/135/96 93/132/93
f 88/134/88 90/168/90 96/135/96
f 18/18/18 17/17/17 37/49/37
f 17/17/17 24/169/24 43/138/43
f 24/26/24 12/12/12 11/11/11
f 28/34/28 27/33/27 21/21/21
f 27/45/27 35/43/35 23/27/23
f 35/43/35 10/10/10 12/12/12
f 7/7/7 48/65/48 31/37/31
f 48/76/48 54/73/54 36/44/36
f 54/73/54 55/75/55 10/10/10
f 15/15/15 44/59/44 51/69/51
f 44/59/44 42/54/42 53/74/53
f 42/54/42 11/11/11 55/75/55
f 39/51/39 38/50/38 77/109/77
f 38/50/38 45/170/45 83/141/83
f 45/58/45 15/15/15 14/14/14
f 9/9/9 88/124/88 47/64/47
f 88/134/88 94/131/94 52/70/52
f 94/131/94 95/133/95 13/13/13
f 6/6/6 84/119/84 91/127/91
f 84/119/84 82/114/82 93/132/93
f 82/114/82 14/14/14 95/133/95
f 79/111/79 78/110/78 57/79/57
f 78/110/78 85/118/85 63/85/63
f 85/118/85 6/6/6 5/5/5
f 8/8/8 68/95/68 87/123/87
f 68/95/68 74/103/74 92/128/92
f 74/103/74 75/105/75 4/4/4
f 3/3/3 64/89/64 71/99/71
f 64/89/64 62/84/62 73/104/73
f 62/84/62 5/5/5 75/105/75
f 59/81/59 58/80/58 16/16/16
f 58/80/58 65/171/65 22/143/22
f 65/88/65 3/3/3 2/2/2
f 32/39/32 29/38/29 67/94/67
f 29/35/29 26/32/26 72/100/72
f 26/32/26 28/34/28 1/1/1
f 79/111/79 59/81/59 18/18/18
