{
    "asset" : {
        "generator" : "Khronos glTF Blender I/O v1.7.33",
        "version" : "2.0"
    },
    "scene" : 0,
    "scenes" : [
        {
            "name" : "Scene",
            "nodes" : [
                0
            ]
        }
    ],
    "nodes" : [
        {
            "mesh" : 0,
            "name" : "Icosphere",
            "rotation" : [
                0.7071068286895752,
                0,
                0,
                0.7071067094802856
            ]
        }
    ],
    "meshes" : [
        {
            "name" : "Icosphere",
            "primitives" : [
                {
                    "attributes" : {
                        "POSITION" : 0,
                        "NORMAL" : 1,
                        "TANGENT" : 2,
                        "TEXCOORD_0" : 3
                    },
                    "indices" : 4
                }
            ]
        }
    ],
    "accessors" : [
        {
            "bufferView" : 0,
            "componentType" : 5126,
            "count" : 619,
            "max" : [
                0.9508180022239685,
                0.9990010261535645,
                0.9991130232810974
            ],
            "min" : [
                -0.9508180022239685,
                -0.9990010261535645,
                -0.9991130232810974
            ],
            "type" : "VEC3"
        },
        {
            "bufferView" : 1,
            "componentType" : 5126,
            "count" : 619,
            "type" : "VEC3"
        },
        {
            "bufferView" : 2,
            "componentType" : 5126,
            "count" : 619,
            "type" : "VEC4"
        },
        {
            "bufferView" : 3,
            "componentType" : 5126,
            "count" : 619,
            "type" : "VEC2"
        },
        {
            "bufferView" : 4,
            "componentType" : 5123,
            "count" : 3120,
            "type" : "SCALAR"
        }
    ],
    "bufferViews" : [
        {
            "buffer" : 0,
            "byteLength" : 7428,
            "byteOffset" : 0
        },
        {
            "buffer" : 0,
            "byteLength" : 7428,
            "byteOffset" : 7428
        },
        {
            "buffer" : 0,
            "byteLength" : 9904,
            "byteOffset" : 14856
        },
        {
            "buffer" : 0,
            "byteLength" : 4952,
            "byteOffset" : 24760
        },
        {
            "buffer" : 0,
            "byteLength" : 6240,
            "byteOffset" : 29712
        }
    ],
    "buffers" : [
        {
            "byteLength" : 35952,
            "uri" : "data:application/octet-stream;base64,"
        }
    ]
}
