{
    "asset" : {
        "generator" : "Khronos glTF Blender I/O v1.7.33",
        "version" : "2.0"
    },
    "scene" : 0,
    "scenes" : [
        {
            "name" : "Scene",
            "nodes" : [
                0
            ]
        }
    ],
    "nodes" : [
        {
            "mesh" : 0,
            "name" : "Ship",
            "rotation" : [
                0.7071068286895752,
                0,
                0,
                0.7071067094802856
            ]
        }
    ],
    "materials" : [
        {
            "doubleSided" : true,
            "name" : "Default OBJ.005",
            "pbrMetallicRoughness" : {
                "baseColorTexture" : {
                    "index" : 0
                },
                "metallicFactor" : 0,
                "metallicRoughnessTexture" : {
                    "index" : 1
                }
            }
        }
    ],
    "meshes" : [
        {
            "name" : "Ship_Cube.005",
            "primitives" : [
                {
                    "attributes" : {
                        "POSITION" : 0,
                        "NORMAL" : 1,
                        "TANGENT" : 2,
                        "TEXCOORD_0" : 3
                    },
                    "indices" : 4,
                    "material" : 0
                }
            ]
        }
    ],
    "textures" : [
        {
            "sampler" : 0,
            "source" : 0
        },
        {
            "sampler" : 0,
            "source" : 1
        }
    ],
    "images" : [
        {
            "bufferView" : 5,
            "mimeType" : "image/png",
            "name" : "diff_W_Fighter_Space_Ship"
        },
        {
            "bufferView" : 6,
            "mimeType" : "image/png",
            "name" : "spec_W_Fighter_Space_Ship"
        }
    ],
    "accessors" : [
        {
            "bufferView" : 0,
            "componentType" : 5126,
            "count" : 6355,
            "max" : [
                1.6577492952346802,
                2.9428563117980957,
                0.29824501276016235
            ],
            "min" : [
                -1.6577497720718384,
                -1.3365486860275269,
                -0.9403416514396667
            ],
            "type" : "VEC3"
        },
        {
            "bufferView" : 1,
            "componentType" : 5126,
            "count" : 6355,
            "type" : "VEC3"
        },
        {
            "bufferView" : 2,
            "componentType" : 5126,
            "count" : 6355,
            "type" : "VEC4"
        },
        {
            "bufferView" : 3,
            "componentType" : 5126,
            "count" : 6355,
            "type" : "VEC2"
        },
        {
            "bufferView" : 4,
            "componentType" : 5123,
            "count" : 24450,
            "type" : "SCALAR"
        }
    ],
    "bufferViews" : [
        {
            "buffer" : 0,
            "byteLength" : 76260,
            "byteOffset" : 0
        },
        {
            "buffer" : 0,
            "byteLength" : 76260,
            "byteOffset" : 76260
        },
        {
            "buffer" : 0,
            "byteLength" : 101680,
            "byteOffset" : 152520
        },
        {
            "buffer" : 0,
            "byteLength" : 50840,
            "byteOffset" : 254200
        },
        {
            "buffer" : 0,
            "byteLength" : 48900,
            "byteOffset" : 305040
        },
        {
            "buffer" : 0,
            "byteLength" : 22121,
            "byteOffset" : 353940
        },
        {
            "buffer" : 0,
            "byteLength" : 23292,
            "byteOffset" : 376064
        }
    ],
    "samplers" : [
        {
            "magFilter" : 9729,
            "minFilter" : 9987
        }
    ],
    "buffers" : [
        {
            "byteLength" : 399356,
            "uri" : "data:application/octet-stream;base64,"
        }
    ]
}
