{
    "asset" : {
        "generator" : "Khronos glTF Blender I/O v1.7.33",
        "version" : "2.0"
    },
    "scene" : 0,
    "scenes" : [
        {
            "name" : "Scene",
            "nodes" : [
                0
            ]
        }
    ],
    "nodes" : [
        {
            "mesh" : 0,
            "name" : "Sphere",
            "rotation" : [
                0.7071068286895752,
                0,
                0,
                0.7071067094802856
            ]
        }
    ],
    "meshes" : [
        {
            "name" : "Sphere_Sphere.001",
            "primitives" : [
                {
                    "attributes" : {
                        "POSITION" : 0,
                        "NORMAL" : 1,
                        "TANGENT" : 2,
                        "TEXCOORD_0" : 3
                    },
                    "indices" : 4
                }
            ]
        }
    ],
    "accessors" : [
        {
            "bufferView" : 0,
            "componentType" : 5126,
            "count" : 1087,
            "max" : [
                1,
                0.9999989867210388,
                1
            ],
            "min" : [
                -0.9999989867210388,
                -1,
                -1
            ],
            "type" : "VEC3"
        },
        {
            "bufferView" : 1,
            "componentType" : 5126,
            "count" : 1087,
            "type" : "VEC3"
        },
        {
            "bufferView" : 2,
            "componentType" : 5126,
            "count" : 1087,
            "type" : "VEC4"
        },
        {
            "bufferView" : 3,
            "componentType" : 5126,
            "count" : 1087,
            "type" : "VEC2"
        },
        {
            "bufferView" : 4,
            "componentType" : 5123,
            "count" : 5952,
            "type" : "SCALAR"
        }
    ],
    "bufferViews" : [
        {
            "buffer" : 0,
            "byteLength" : 13044,
            "byteOffset" : 0
        },
        {
            "buffer" : 0,
            "byteLength" : 13044,
            "byteOffset" : 13044
        },
        {
            "buffer" : 0,
            "byteLength" : 17392,
            "byteOffset" : 26088
        },
        {
            "buffer" : 0,
            "byteLength" : 8696,
            "byteOffset" : 43480
        },
        {
            "buffer" : 0,
            "byteLength" : 11904,
            "byteOffset" : 52176
        }
    ],
    "buffers" : [
        {
            "byteLength" : 64080,
            "uri" : "data:application/octet-stream;base64,"
        }
    ]
}
