{
    "asset" : {
        "generator" : "Khronos glTF Blender I/O v1.7.33",
        "version" : "2.0"
    },
    "scene" : 0,
    "scenes" : [
        {
            "name" : "Scene",
            "nodes" : [
                0
            ]
        }
    ],
    "nodes" : [
        {
            "mesh" : 0,
            "name" : "Suzanne",
            "translation" : [
                0,
                1.8732532262802124,
                -1.8219746351242065
            ]
        }
    ],
    "materials" : [
        {
            "name" : "Suzanne",
            "pbrMetallicRoughness" : {
                "metallicFactor" : 0,
                "roughnessFactor" : 0.5
            }
        }
    ],
    "meshes" : [
        {
            "name" : "Suzanne",
            "primitives" : [
                {
                    "attributes" : {
                        "POSITION" : 0,
                        "NORMAL" : 1,
                        "TANGENT" : 2,
                        "TEXCOORD_0" : 3,
                        "COLOR_0" : 4
                    },
                    "indices" : 5,
                    "material" : 0
                }
            ]
        }
    ],
    "accessors" : [
        {
            "bufferView" : 0,
            "componentType" : 5126,
            "count" : 13258,
            "max" : [
                1.365625023841858,
                0.9819779396057129,
                0.8498650193214417
            ],
            "min" : [
                -1.365625023841858,
                -0.9838770031929016,
                -0.8483108878135681
            ],
            "type" : "VEC3"
        },
        {
            "bufferView" : 1,
            "componentType" : 5126,
            "count" : 13258,
            "type" : "VEC3"
        },
        {
            "bufferView" : 2,
            "componentType" : 5126,
            "count" : 13258,
            "type" : "VEC4"
        },
        {
            "bufferView" : 3,
            "componentType" : 5126,
            "count" : 13258,
            "type" : "VEC2"
        },
        {
            "bufferView" : 4,
            "componentType" : 5123,
            "count" : 13258,
            "normalized" : true,
            "type" : "VEC4"
        },
        {
            "bufferView" : 5,
            "componentType" : 5123,
            "count" : 45636,
            "type" : "SCALAR"
        }
    ],
    "bufferViews" : [
        {
            "buffer" : 0,
            "byteLength" : 159096,
            "byteOffset" : 0
        },
        {
            "buffer" : 0,
            "byteLength" : 159096,
            "byteOffset" : 159096
        },
        {
            "buffer" : 0,
            "byteLength" : 212128,
            "byteOffset" : 318192
        },
        {
            "buffer" : 0,
            "byteLength" : 106064,
            "byteOffset" : 530320
        },
        {
            "buffer" : 0,
            "byteLength" : 106064,
            "byteOffset" : 636384
        },
        {
            "buffer" : 0,
            "byteLength" : 91272,
            "byteOffset" : 742448
        }
    ],
    "buffers" : [
        {
            "byteLength" : 833720,
            "uri" : "data:application/octet-stream;base64,"
        }
    ]
}
